<svg width="80" height="55" viewBox="0 0 80 55" fill="none" xmlns="http://www.w3.org/2000/svg">
<path d="M33.5996 0.086512C33.7614 0.141083 34.008 0.346477 34.1475 0.543088C34.3519 0.831074 34.4001 1.01578 34.3955 1.49344C34.3904 2.03212 34.3303 2.19242 33.7376 3.24693C33.5886 3.45932 33.4702 3.63614 33.3647 3.79373C32.9535 4.40794 32.7378 4.73014 31.6628 5.72829L31.6218 5.7664L31.6217 5.76649C31.0038 6.3402 30.6249 6.692 30.6505 6.72181C30.6911 6.76908 31.7487 6.00687 34.4827 4.03631L34.5992 3.95235C36.3826 2.66696 37.9715 1.56812 38.1302 1.51052C38.3658 1.42501 38.4859 1.44131 38.7866 1.59966C39.3717 1.90775 39.5944 2.54152 39.2808 3.24693C38.9672 3.95235 33.6654 9.18832 33.6654 9.18832C30.414 12.3162 27.7538 14.9286 27.7538 14.9935C27.7538 15.0753 28.0422 15.1201 28.6926 15.1396L29.6313 15.1677L29.7057 18.1452C29.7466 19.7828 29.8051 21.262 29.8357 21.4325C29.8689 21.6173 30.0302 21.8596 30.2355 22.0329C30.5499 22.2985 30.6611 22.3284 31.5263 22.3789C32.0469 22.4095 33.8053 22.4549 35.4337 22.4799C37.7703 22.5158 38.4548 22.5556 38.6812 22.6689C39.374 23.0155 39.7352 23.7148 39.4733 24.2021C39.4595 24.2277 39.4503 24.2504 39.4418 24.2713L39.4418 24.2714C39.4344 24.2895 39.4277 24.3061 39.4191 24.3218C39.322 24.4993 38.9892 24.5573 34.9056 25.269C34.49 25.3414 34.0356 25.4206 33.5386 25.5074C25.9252 26.8369 25.7206 26.8542 24.4899 26.2713C23.3044 25.71 22.5828 24.7159 22.3798 23.3649C22.2485 22.4907 22.2919 21.4895 22.3811 20.2928C22.6652 16.4817 25.0953 11.6403 25.6107 10.6136C25.6384 10.5584 25.6606 10.5142 25.6766 10.4818C26.2165 9.38903 32.675 0.25491 33.0076 0.113846C33.1868 -0.05264 33.3084 -0.0116461 33.5777 0.0791265L33.5996 0.086512Z" fill="#005F75"/>
<path d="M46.2884 0.086512C46.1266 0.141083 45.88 0.346477 45.7404 0.543088C45.536 0.831074 45.4878 1.01578 45.4924 1.49344C45.4976 2.03212 45.5577 2.19242 46.1503 3.24693C46.2993 3.45922 46.4177 3.63597 46.5231 3.79351L46.5233 3.79373C46.9345 4.40794 47.1502 4.73014 48.2251 5.72829L48.2662 5.76637C48.8841 6.34015 49.2631 6.692 49.2374 6.72181C49.1968 6.76908 48.1395 6.00702 45.4059 4.03679L45.4058 4.03671L45.4056 4.03656L45.4054 4.03645L45.2887 3.95235C43.5054 2.66696 41.9164 1.56812 41.7578 1.51052C41.5221 1.42501 41.4021 1.44131 41.1014 1.59966C40.5163 1.90775 40.2936 2.54152 40.6071 3.24693C40.9207 3.95235 46.2225 9.18832 46.2225 9.18832C49.4739 12.3162 52.1341 14.9286 52.1341 14.9935C52.1341 15.0753 51.8458 15.1201 51.1954 15.1396L50.2566 15.1677L50.1822 18.1452C50.1413 19.7828 50.0829 21.262 50.0522 21.4325C50.019 21.6173 49.8578 21.8596 49.6525 22.0329C49.338 22.2985 49.2268 22.3284 48.3616 22.3789C47.841 22.4095 46.0826 22.4549 44.4543 22.4799C42.1177 22.5158 41.4331 22.5556 41.2067 22.6689C40.514 23.0155 40.1528 23.7148 40.4147 24.2021C40.4284 24.2277 40.4377 24.2504 40.4461 24.2713C40.4535 24.2894 40.4602 24.3061 40.4688 24.3218C40.566 24.4993 40.8987 24.5572 44.9822 25.269L44.9823 25.269C45.3979 25.3414 45.8524 25.4206 46.3494 25.5074C53.9627 26.8369 54.1673 26.8542 55.398 26.2713C56.5835 25.71 57.3052 24.7159 57.5082 23.3649C57.6395 22.4907 57.596 21.4895 57.5069 20.2928C57.2228 16.4817 54.7926 11.6404 54.2773 10.6136L54.2766 10.6122C54.2492 10.5576 54.2272 10.5139 54.2114 10.4818C53.6714 9.38903 47.2129 0.25491 46.8803 0.113846C46.7012 -0.0526401 46.5796 -0.011646 46.3103 0.0791268L46.2884 0.086512Z" fill="#005F75"/>
<path fill-rule="evenodd" clip-rule="evenodd" d="M34.2978 10.5676C34.046 10.6459 33.8564 11.008 33.8027 11.5127C33.7651 11.8665 33.7516 12.8807 33.7806 13.1787C33.8326 13.7146 33.9608 14.2406 34.173 14.7892C34.2312 14.9394 34.2787 15.078 34.2787 15.0972C34.2787 15.1164 34.2349 15.2265 34.1813 15.3418C33.9376 15.8666 33.8241 16.5549 33.8701 17.2283C33.9271 18.0616 34.1663 18.6337 34.6777 19.16C35.1708 19.6673 35.9907 20.1348 36.8579 20.4033C37.7597 20.6824 38.5733 20.7939 39.707 20.7935C41.7537 20.7929 43.2869 20.449 44.4012 19.7406C45.2476 19.2025 45.6957 18.5694 45.8513 17.6915C45.8901 17.4722 45.8943 17.3832 45.8843 16.9812C45.8682 16.3315 45.7794 15.91 45.5559 15.4221C45.5026 15.3057 45.459 15.1886 45.459 15.1619C45.459 15.1352 45.5017 15.0119 45.5538 14.8878C45.7755 14.3607 45.9111 13.8619 45.99 13.2835C46.0303 12.9872 46.0587 12.0148 46.0378 11.6435C46.0093 11.1366 45.8325 10.7502 45.5777 10.6379C45.4726 10.5916 45.2824 10.5881 45.1029 10.6292C44.9268 10.6696 44.4026 10.8695 44.1467 10.9939C43.6707 11.2252 43.0807 11.6506 42.5937 12.1136C42.4124 12.2859 42.2397 12.4359 42.2099 12.4468C42.1489 12.4692 42.1073 12.4592 41.779 12.3432C41.5325 12.2561 41.137 12.1641 40.7754 12.1096C40.4192 12.056 39.3409 12.0559 38.9839 12.1095C38.6218 12.1638 38.1418 12.2819 37.8895 12.3787C37.6212 12.4817 37.5573 12.478 37.454 12.3537C37.4161 12.3081 37.3734 12.273 37.359 12.2757C37.3446 12.2784 37.3355 12.2679 37.3389 12.2524C37.3473 12.2141 37.301 12.163 37.273 12.1797C37.2607 12.1871 37.2564 12.184 37.2636 12.1728C37.2803 12.1466 36.8701 11.7544 36.6287 11.5658C36.2195 11.246 35.8782 11.0434 35.3363 10.7983C34.8339 10.5711 34.5145 10.5002 34.2978 10.5676ZM37.4327 12.3486C37.4595 12.3817 37.4587 12.3824 37.4245 12.3565C37.3886 12.3292 37.3771 12.312 37.3949 12.312C37.3994 12.312 37.4164 12.3285 37.4327 12.3486Z" fill="#005F75"/>
<path d="M17.1429 28.6863C17.1429 29.401 16.5409 29.9804 15.7983 29.9804C15.0558 29.9804 14.4538 29.401 14.4538 28.6863C14.4538 27.9716 15.0558 27.3922 15.7983 27.3922C16.5409 27.3922 17.1429 27.9716 17.1429 28.6863Z" fill="#005F75"/>
<path d="M5.84022 33.2705V33.4534C5.84022 36.6346 5.4761 38.5903 4.81703 39.7555C4.4838 40.3446 4.07222 40.7372 3.59175 40.9795C3.11377 41.2206 2.58553 41.3039 2.03338 41.3039C1.21528 41.3039 0.413011 41.1365 0.156438 41.0547C0.0560163 41.0227 -0.00832796 40.9289 0.000872658 40.8281L0.203111 38.6115C0.20884 38.5487 0.24261 38.4913 0.295769 38.454C0.348927 38.4168 0.416309 38.4033 0.480651 38.4169C0.533201 38.4281 0.658108 38.4421 0.800049 38.4534C0.938688 38.4644 1.07095 38.4712 1.13108 38.4712C1.32607 38.4712 1.47853 38.447 1.61682 38.35C1.75932 38.25 1.92002 38.0489 2.06706 37.6245C2.36335 36.7691 2.56688 35.1206 2.56688 31.9657V30.5227C2.56688 30.4019 2.66931 30.3039 2.79566 30.3039H11.1652C11.2916 30.3039 11.394 30.4019 11.394 30.5227V40.9364C11.394 41.0572 11.2916 41.1552 11.1652 41.1552H8.14721C8.02086 41.1552 7.91843 41.0572 7.91843 40.9364V33.2705H5.84022Z" fill="#005F75"/>
<path d="M13.318 41.1552C13.1917 41.1552 13.0892 41.0572 13.0892 40.9364V30.5227C13.0892 30.4019 13.1917 30.3039 13.318 30.3039H22.0765C22.2028 30.3039 22.3053 30.4019 22.3053 30.5227V32.9774C22.3053 33.0982 22.2028 33.1961 22.0765 33.1961H16.5337V34.3355H21.532C21.6584 34.3355 21.7608 34.4335 21.7608 34.5543V36.8304C21.7608 36.9512 21.6584 37.0492 21.532 37.0492H16.5337V38.263H22.1543C22.2806 38.263 22.3831 38.3609 22.3831 38.4817V40.9364C22.3831 41.0572 22.2806 41.1552 22.1543 41.1552H13.318Z" fill="#005F75"/>
<path d="M24.0304 41.1552C23.9041 41.1552 23.8016 41.0572 23.8016 40.9364V30.5227C23.8016 30.4019 23.9041 30.3039 24.0304 30.3039H27.0484C27.1748 30.3039 27.2772 30.4019 27.2772 30.5227V34.2016H30.6933V30.5227C30.6933 30.4019 30.7957 30.3039 30.9221 30.3039H33.9401C34.0665 30.3039 34.1689 30.4019 34.1689 30.5227V40.9364C34.1689 41.0572 34.0665 41.1552 33.9401 41.1552H30.9221C30.7957 41.1552 30.6933 41.0572 30.6933 40.9364V37.198H27.2772V40.9364C27.2772 41.0572 27.1748 41.1552 27.0484 41.1552H24.0304Z" fill="#005F75"/>
<path fill-rule="evenodd" clip-rule="evenodd" d="M35.9772 41.1552C35.8508 41.1552 35.7484 41.0572 35.7484 40.9364V30.5227C35.7484 30.4019 35.8508 30.3039 35.9772 30.3039H38.9952C39.1216 30.3039 39.224 30.4019 39.224 30.5227V33.5768H40.6442C41.9837 33.5768 43.1701 33.8814 44.0272 34.511C44.8922 35.1463 45.4001 36.0974 45.4001 37.3362C45.4001 38.5165 44.9482 39.4801 44.1315 40.1452C43.3191 40.8069 42.1685 41.1552 40.7998 41.1552H35.9772ZM39.224 36.2756V38.2927H40.5665C41.0338 38.2927 41.3722 38.191 41.5895 38.0233C41.7993 37.8614 41.9245 37.6163 41.9245 37.2618C41.9245 36.9589 41.8043 36.7217 41.5908 36.5557C41.3723 36.3859 41.0357 36.2756 40.582 36.2756H39.224Z" fill="#005F75"/>
<path d="M46.4446 41.1552C46.3183 41.1552 46.2159 41.0572 46.2159 40.9364V30.5227C46.2159 30.4019 46.3183 30.3039 46.4446 30.3039H49.4627C49.589 30.3039 49.6914 30.4019 49.6914 30.5227V34.1517L53.0374 30.3811C53.0809 30.3322 53.1447 30.3039 53.2118 30.3039H56.7899C56.8798 30.3039 56.9614 30.3543 56.9984 30.4326C57.0354 30.5109 57.021 30.6027 56.9616 30.6673L52.9568 35.0172L57.1185 40.8125C57.1666 40.8795 57.1719 40.9664 57.1324 41.0383C57.0928 41.1102 57.0149 41.1552 56.9299 41.1552H53.3052C53.2293 41.1552 53.1583 41.1191 53.1157 41.059L50.5418 37.4228L49.6914 38.3276V40.9364C49.6914 41.0572 49.589 41.1552 49.4627 41.1552H46.4446Z" fill="#005F75"/>
<path d="M57.9204 41.1552C57.7941 41.1552 57.6917 41.0572 57.6917 40.9364V30.5227C57.6917 30.4019 57.7941 30.3039 57.9204 30.3039H60.9074C61.0337 30.3039 61.1361 30.4019 61.1361 30.5227V35.68L64.9348 30.3987C64.9774 30.3394 65.0479 30.3039 65.1233 30.3039H67.939C68.0654 30.3039 68.1678 30.4019 68.1678 30.5227V40.9364C68.1678 41.0572 68.0654 41.1552 67.939 41.1552H64.9521C64.8258 41.1552 64.7234 41.0572 64.7234 40.9364V35.7791L60.9247 41.0604C60.882 41.1197 60.8115 41.1552 60.7362 41.1552H57.9204Z" fill="#005F75"/>
<path d="M69.8615 41.1552C69.7352 41.1552 69.6327 41.0572 69.6327 40.9364V30.5227C69.6327 30.4019 69.7352 30.3039 69.8615 30.3039H72.8795C73.0059 30.3039 73.1083 30.4019 73.1083 30.5227V34.2016H76.5244V30.5227C76.5244 30.4019 76.6268 30.3039 76.7532 30.3039H79.7712C79.8976 30.3039 80 30.4019 80 30.5227V40.9364C80 41.0572 79.8976 41.1552 79.7712 41.1552H76.7532C76.6268 41.1552 76.5244 41.0572 76.5244 40.9364V37.198H73.1083V40.9364C73.1083 41.0572 73.0059 41.1552 72.8795 41.1552H69.8615Z" fill="#005F75"/>
<path d="M20.8403 28.6863C20.8403 29.401 20.2384 29.9804 19.4958 29.9804C18.7532 29.9804 18.1513 29.401 18.1513 28.6863C18.1513 27.9716 18.7532 27.3922 19.4958 27.3922C20.2384 27.3922 20.8403 27.9716 20.8403 28.6863Z" fill="#005F75"/>
<path fill-rule="evenodd" clip-rule="evenodd" d="M46.2769 49.3382C46.2769 52.4697 43.6458 55 40.1603 55C36.674 55 34.0749 52.4988 34.0749 49.3382C34.0749 46.2068 36.7059 43.6765 40.1914 43.6765C43.6777 43.6765 46.2769 46.1776 46.2769 49.3382ZM37.6325 49.3382C37.6325 50.7468 38.6869 51.944 40.1914 51.944C41.7106 51.944 42.7348 50.7777 42.7348 49.3382C42.7348 47.9305 41.6813 46.7325 40.1603 46.7325C38.6575 46.7325 37.6325 47.8979 37.6325 49.3382Z" fill="#005F75"/>
<path d="M23.5294 54.5708C23.5294 54.6923 23.632 54.7907 23.7585 54.7907H26.7801C26.9066 54.7907 27.0091 54.6923 27.0091 54.5708V51.9491L27.8605 51.0399L30.4376 54.6941C30.4802 54.7545 30.5512 54.7907 30.6272 54.7907H34.2563C34.3414 54.7907 34.4194 54.7455 34.459 54.6732C34.4986 54.601 34.4933 54.5137 34.4451 54.4464L30.2785 48.6224L34.288 44.2509C34.3475 44.1861 34.3619 44.0938 34.3249 44.0151C34.2878 43.9364 34.2061 43.8858 34.1161 43.8858H30.5338C30.4665 43.8858 30.4027 43.9142 30.3591 43.9634L27.0091 47.7526V44.1056C27.0091 43.9842 26.9066 43.8858 26.7801 43.8858H23.7585C23.632 43.8858 23.5294 43.9842 23.5294 44.1056V54.5708Z" fill="#005F75"/>
<path d="M50.1731 54.7907C50.0466 54.7907 49.9441 54.6923 49.9441 54.5708V46.867H46.9023C46.7758 46.867 46.6732 46.7686 46.6732 46.6472V44.1056C46.6732 43.9842 46.7758 43.8858 46.9023 43.8858H56.4656C56.5921 43.8858 56.6947 43.9842 56.6947 44.1056V46.6472C56.6947 46.7686 56.5921 46.867 56.4656 46.867H53.4238V54.5708C53.4238 54.6923 53.3213 54.7907 53.1948 54.7907H50.1731Z" fill="#005F75"/>
</svg>
