<svg width="100" height="26" viewBox="0 0 100 26" fill="none" xmlns="http://www.w3.org/2000/svg">
<path d="M47.5697 2.96614C48.1761 2.96614 48.6677 2.47277 48.6677 1.86417C48.6677 1.25558 48.1761 0.762207 47.5697 0.762207C46.9633 0.762207 46.4717 1.25558 46.4717 1.86417C46.4717 2.47277 46.9633 2.96614 47.5697 2.96614Z" fill="#00677F"/>
<path d="M39.4374 5.92348V5.76775H41.1346V12.2954C41.1346 12.3983 41.2182 12.4817 41.3214 12.4817H43.7861C43.8892 12.4817 43.9729 12.3983 43.9729 12.2954V3.42792C43.9729 3.32504 43.8892 3.24163 43.7861 3.24163H36.951C36.8479 3.24163 36.7642 3.32504 36.7642 3.42792V4.6567C36.7642 7.3431 36.598 8.74687 36.356 9.47523C36.236 9.83668 36.1047 10.0079 35.9883 10.093C35.8754 10.1756 35.7509 10.1963 35.5917 10.1963C35.5426 10.1963 35.4346 10.1905 35.3213 10.1811C35.2054 10.1714 35.1034 10.1595 35.0605 10.15C35.0079 10.1384 34.9529 10.1499 34.9095 10.1816C34.8661 10.2134 34.8385 10.2622 34.8338 10.3157L34.6687 12.2032C34.6612 12.2891 34.7137 12.3689 34.7957 12.3961C35.0053 12.4658 35.6604 12.6084 36.3285 12.6084C36.7794 12.6084 37.2108 12.5374 37.6012 12.3321C37.9935 12.1258 38.3297 11.7915 38.6018 11.2898C39.14 10.2977 39.4374 8.63234 39.4374 5.92348Z" fill="#00677F"/>
<path d="M45.5441 12.4817C45.4409 12.4817 45.3573 12.3983 45.3573 12.2954V3.42792C45.3573 3.32504 45.4409 3.24163 45.5441 3.24163H52.6967C52.7999 3.24163 52.8836 3.32504 52.8836 3.42792V5.51811C52.8836 5.621 52.7999 5.7044 52.6967 5.7044H48.1702V6.67461H52.2521C52.3553 6.67461 52.4389 6.75802 52.4389 6.8609V8.79908C52.4389 8.90196 52.3553 8.98537 52.2521 8.98537H48.1702V10.0189H52.7603C52.8635 10.0189 52.9471 10.1023 52.9471 10.2052V12.2954C52.9471 12.3983 52.8635 12.4817 52.7603 12.4817H45.5441Z" fill="#00677F"/>
<path d="M54.1056 12.2954C54.1056 12.3983 54.1892 12.4817 54.2924 12.4817H56.7571C56.8603 12.4817 56.9439 12.3983 56.9439 12.2954V9.11204H59.7337V12.2954C59.7337 12.3983 59.8173 12.4817 59.9205 12.4817H62.3852C62.4884 12.4817 62.572 12.3983 62.572 12.2954V3.42792C62.572 3.32504 62.4884 3.24163 62.3852 3.24163H59.9205C59.8173 3.24163 59.7337 3.32504 59.7337 3.42792V6.5606H56.9439V3.42792C56.9439 3.32504 56.8603 3.24163 56.7571 3.24163H54.2924C54.1892 3.24163 54.1056 3.32504 54.1056 3.42792V12.2954Z" fill="#00677F"/>
<path fill-rule="evenodd" clip-rule="evenodd" d="M64.0488 12.4817C63.9456 12.4817 63.8619 12.3983 63.8619 12.2954V3.42792C63.8619 3.32504 63.9456 3.24163 64.0488 3.24163H66.5134C66.6166 3.24163 66.7003 3.32504 66.7003 3.42792V6.02855H67.8601C68.954 6.02855 69.9228 6.2879 70.6228 6.82401C71.3292 7.36503 71.7439 8.17489 71.7439 9.22978C71.7439 10.2348 71.3749 11.0553 70.7079 11.6217C70.0445 12.1851 69.1049 12.4817 67.9872 12.4817H64.0488ZM66.7003 8.32664V10.0442H67.7966C68.1782 10.0442 68.4546 9.95763 68.6321 9.8148C68.8034 9.67695 68.9056 9.46828 68.9056 9.16644C68.9056 8.90848 68.8075 8.70647 68.6331 8.56518C68.4547 8.42053 68.1798 8.32664 67.8093 8.32664H66.7003Z" fill="#00677F"/>
<path d="M72.4102 12.2954C72.4102 12.3983 72.4938 12.4817 72.597 12.4817H75.0617C75.1648 12.4817 75.2485 12.3983 75.2485 12.2954V10.0739L75.9429 9.30349L78.045 12.3998C78.0797 12.451 78.1377 12.4817 78.1997 12.4817H81.1598C81.2292 12.4817 81.2928 12.4434 81.3251 12.3822C81.3575 12.321 81.3531 12.2469 81.3138 12.1899L77.9152 7.25511L81.1857 3.55103C81.2342 3.49609 81.246 3.41791 81.2157 3.3512C81.1855 3.2845 81.1189 3.24163 81.0455 3.24163H78.1234C78.0686 3.24163 78.0165 3.26568 77.981 3.30739L75.2485 6.51813V3.42792C75.2485 3.32504 75.1648 3.24163 75.0617 3.24163H72.597C72.4938 3.24163 72.4102 3.32504 72.4102 3.42792V12.2954Z" fill="#00677F"/>
<path d="M81.9687 12.4817C81.8655 12.4817 81.7819 12.3983 81.7819 12.2954V3.42792C81.7819 3.32504 81.8655 3.24163 81.9687 3.24163H84.408C84.5112 3.24163 84.5948 3.32504 84.5948 3.42792V7.81947L87.697 3.32235C87.7318 3.27182 87.7894 3.24163 87.8509 3.24163H90.1504C90.2536 3.24163 90.3372 3.32504 90.3372 3.42792V12.2954C90.3372 12.3983 90.2536 12.4817 90.1504 12.4817H87.7112C87.608 12.4817 87.5243 12.3983 87.5243 12.2954V7.90384L84.4222 12.401C84.3873 12.4515 84.3297 12.4817 84.2682 12.4817H81.9687Z" fill="#00677F"/>
<path d="M91.5336 12.2954C91.5336 12.3983 91.6172 12.4817 91.7204 12.4817H94.1851C94.2883 12.4817 94.3719 12.3983 94.3719 12.2954V9.11204H97.1617V12.2954C97.1617 12.3983 97.2453 12.4817 97.3485 12.4817H99.8132C99.9164 12.4817 100 12.3983 100 12.2954V3.42792C100 3.32504 99.9164 3.24163 99.8132 3.24163H97.3485C97.2453 3.24163 97.1617 3.32504 97.1617 3.42792V6.5606H94.3719V3.42792C94.3719 3.32504 94.2883 3.24163 94.1851 3.24163H91.7204C91.6172 3.24163 91.5336 3.32504 91.5336 3.42792V12.2954Z" fill="#00677F"/>
<path d="M51.6872 1.86417C51.6872 2.47277 51.1956 2.96614 50.5892 2.96614C49.9828 2.96614 49.4912 2.47277 49.4912 1.86417C49.4912 1.25558 49.9828 0.762207 50.5892 0.762207C51.1956 0.762207 51.6872 1.25558 51.6872 1.86417Z" fill="#00677F"/>
<path d="M10.3288 1.54894C10.2071 1.37045 9.9922 1.18399 9.8512 1.13445L9.8321 1.12775C9.59741 1.04534 9.49142 1.00813 9.33525 1.15927C9.04538 1.28733 3.41624 9.57946 2.94567 10.5715C2.93171 10.6009 2.91238 10.641 2.88821 10.6912C2.43903 11.6233 0.320952 16.0183 0.0733777 19.4782C-0.00435868 20.5645 -0.042233 21.4734 0.0722273 22.267C0.249135 23.4935 0.878133 24.3959 1.91137 24.9055C2.98405 25.4347 3.16238 25.419 9.79804 24.2121C10.2312 24.1333 10.6273 24.0614 10.9895 23.9956C14.5487 23.3495 14.8387 23.2968 14.9234 23.1357C14.9309 23.1215 14.9368 23.1064 14.9431 23.09L14.9432 23.0898C14.9506 23.0709 14.9586 23.0503 14.9706 23.0271C15.1989 22.5847 14.8841 21.9499 14.2803 21.6352C14.0829 21.5324 13.4863 21.4962 11.4497 21.4636C10.0305 21.4409 8.49794 21.3997 8.04417 21.3719C7.2901 21.326 7.19315 21.2989 6.91912 21.0578C6.74018 20.9005 6.59962 20.6805 6.5707 20.5127C6.54398 20.358 6.49303 19.0151 6.45739 17.5284L6.39255 14.8254L5.57435 14.7999C5.00744 14.7823 4.75615 14.7416 4.75615 14.6673C4.75615 14.6084 7.07471 12.2368 9.90861 9.39725C9.90861 9.39725 14.5295 4.64393 14.8029 4.00354C15.0762 3.36315 14.882 2.78781 14.3721 2.50811C14.11 2.36437 14.0054 2.34956 13.8 2.4272C13.6617 2.47948 12.2768 3.47703 10.7225 4.64393L10.6209 4.72016C8.23796 6.50907 7.31623 7.20102 7.28084 7.15811C7.25851 7.13104 7.58875 6.81167 8.12729 6.29084L8.12737 6.29076L8.16314 6.25617C9.10007 5.35003 9.28808 5.05753 9.64646 4.49993C9.73842 4.35687 9.84159 4.19635 9.9715 4.00354C10.4881 3.04623 10.5404 2.90071 10.5449 2.41169C10.5489 1.97806 10.5069 1.81038 10.3288 1.54894Z" fill="#00677F"/>
<path d="M20.433 1.54894C20.5546 1.37045 20.7695 1.18399 20.9105 1.13445L20.9296 1.12775C21.1643 1.04534 21.2703 1.00813 21.4265 1.15927C21.7163 1.28733 27.3455 9.57946 27.8161 10.5715C27.8299 10.6007 27.849 10.6403 27.8729 10.6899L27.8735 10.6912C28.3227 11.6233 30.4408 16.0183 30.6883 19.4782C30.7661 20.5645 30.804 21.4734 30.6895 22.267C30.5126 23.4935 29.8836 24.3959 28.8503 24.9055C27.7777 25.4347 27.5993 25.419 20.9637 24.2121C20.5305 24.1333 20.1344 24.0614 19.7722 23.9956L19.7721 23.9956C16.213 23.3495 15.923 23.2968 15.8383 23.1357C15.8308 23.1215 15.8249 23.1063 15.8185 23.0898C15.8112 23.0709 15.8031 23.0503 15.7911 23.0271C15.5628 22.5847 15.8776 21.9499 16.4814 21.6352C16.6788 21.5324 17.2754 21.4962 19.312 21.4636C20.7312 21.4409 22.2638 21.3997 22.7175 21.3719C23.4716 21.326 23.5686 21.2989 23.8426 21.0578C24.0215 20.9005 24.1621 20.6805 24.191 20.5127C24.2177 20.358 24.2687 19.0151 24.3043 17.5284L24.3692 14.8254L25.1874 14.7999C25.7543 14.7823 26.0056 14.7416 26.0056 14.6673C26.0056 14.6084 23.687 12.2368 20.8531 9.39725C20.8531 9.39725 16.2322 4.64393 15.9589 4.00354C15.6855 3.36315 15.8797 2.78781 16.3896 2.50811C16.6517 2.36437 16.7563 2.34956 16.9617 2.4272C17.1 2.47948 18.4849 3.47703 20.0392 4.64393L20.1409 4.72028L20.1411 4.72038L20.1413 4.72052L20.1414 4.72059C22.5239 6.5092 23.4455 7.20101 23.4809 7.15811C23.5032 7.13104 23.1729 6.81162 22.6343 6.29074L22.5986 6.25617C21.6616 5.35003 21.4736 5.05753 21.1153 4.49993L21.1151 4.49973C21.0232 4.35672 20.9201 4.19626 20.7902 4.00354C20.2736 3.04623 20.2213 2.90071 20.2168 2.41169C20.2128 1.97806 20.2548 1.81038 20.433 1.54894Z" fill="#00677F"/>
<path fill-rule="evenodd" clip-rule="evenodd" d="M10.4598 10.6494C10.2403 10.7205 10.075 11.0492 10.0282 11.5074C9.99547 11.8286 9.98373 12.7493 10.009 13.0198C10.0543 13.5063 10.166 13.9838 10.351 14.4818C10.4017 14.6182 10.4431 14.744 10.4431 14.7614C10.4431 14.7788 10.4049 14.8788 10.3582 14.9835C10.1458 15.46 10.0469 16.0848 10.087 16.6961C10.1366 17.4526 10.3451 17.972 10.7909 18.4497C11.2206 18.9103 11.9352 19.3347 12.6911 19.5784C13.4771 19.8318 14.1862 19.933 15.1743 19.9327C16.9582 19.9321 18.2945 19.6199 19.2657 18.9768C20.0034 18.4883 20.3939 17.9136 20.5296 17.1166C20.5634 16.9175 20.567 16.8367 20.5583 16.4718C20.5443 15.882 20.4669 15.4993 20.2721 15.0564C20.2256 14.9507 20.1876 14.8445 20.1876 14.8202C20.1876 14.796 20.2249 14.684 20.2703 14.5714C20.4635 14.0928 20.5817 13.64 20.6504 13.1149C20.6856 12.8459 20.7104 11.9631 20.6922 11.6261C20.6673 11.1659 20.5132 10.8152 20.2911 10.7132C20.1995 10.6712 20.0337 10.668 19.8772 10.7053C19.7238 10.742 19.2669 10.9235 19.0439 11.0363C18.629 11.2464 18.1148 11.6326 17.6903 12.0528C17.5323 12.2093 17.3818 12.3454 17.3558 12.3553C17.3026 12.3757 17.2664 12.3666 16.9802 12.2613C16.7654 12.1822 16.4207 12.0987 16.1055 12.0492C15.795 12.0006 14.8553 12.0005 14.5441 12.0491C14.2285 12.0985 13.8101 12.2057 13.5902 12.2936C13.3564 12.3871 13.3006 12.3837 13.2107 12.2709C13.1776 12.2294 13.1404 12.1976 13.1278 12.2C13.1153 12.2025 13.1074 12.193 13.1104 12.1789C13.1176 12.1441 13.0773 12.0977 13.0529 12.1129C13.0422 12.1196 13.0384 12.1168 13.0447 12.1066C13.0592 12.0828 12.7017 11.7268 12.4913 11.5556C12.1347 11.2652 11.8372 11.0813 11.3649 10.8588C10.927 10.6526 10.6486 10.5882 10.4598 10.6494ZM13.1921 12.2662C13.2154 12.2963 13.2148 12.2969 13.1849 12.2734C13.1536 12.2486 13.1437 12.233 13.1591 12.233C13.163 12.233 13.1779 12.2479 13.1921 12.2662Z" fill="#00677F"/>
<path fill-rule="evenodd" clip-rule="evenodd" d="M54.1005 19.2657C54.1005 21.919 51.9545 24.0629 49.1116 24.0629C46.2681 24.0629 44.1481 21.9437 44.1481 19.2657C44.1481 16.6124 46.2941 14.4685 49.137 14.4685C51.9806 14.4685 54.1005 16.5877 54.1005 19.2657ZM47.0499 19.2657C47.0499 20.4592 47.9098 21.4735 49.137 21.4735C50.3761 21.4735 51.2115 20.4854 51.2115 19.2657C51.2115 18.0729 50.3522 17.0579 49.1116 17.0579C47.8859 17.0579 47.0499 18.0453 47.0499 19.2657Z" fill="#00677F"/>
<path d="M35.5469 23.6993C35.5469 23.8022 35.6305 23.8856 35.7337 23.8856H38.1982C38.3014 23.8856 38.3851 23.8022 38.3851 23.6993V21.4779L39.0795 20.7075L41.1814 23.8037C41.2162 23.8549 41.2741 23.8856 41.3361 23.8856H44.2961C44.3655 23.8856 44.4291 23.8472 44.4614 23.786C44.4937 23.7248 44.4894 23.6508 44.4501 23.5938L41.0516 18.6592L44.322 14.9552C44.3705 14.9003 44.3823 14.8221 44.352 14.7554C44.3218 14.6887 44.2552 14.6458 44.1818 14.6458H41.2599C41.205 14.6458 41.1529 14.6699 41.1174 14.7116L38.3851 17.9222V14.8321C38.3851 14.7292 38.3014 14.6458 38.1982 14.6458H35.7337C35.6305 14.6458 35.5469 14.7292 35.5469 14.8321V23.6993Z" fill="#00677F"/>
<path d="M57.0916 23.6993C57.0916 23.8022 57.1753 23.8856 57.2785 23.8856H59.743C59.8462 23.8856 59.9298 23.8022 59.9298 23.6993V17.1719H62.4108C62.514 17.1719 62.5977 17.0885 62.5977 16.9856V14.8321C62.5977 14.7292 62.514 14.6458 62.4108 14.6458H54.6106C54.5075 14.6458 54.4238 14.7292 54.4238 14.8321V16.9856C54.4238 17.0885 54.5075 17.1719 54.6106 17.1719H57.0916V23.6993Z" fill="#00677F"/>
</svg>
