<svg width="16" height="14" viewBox="0 0 16 14" fill="none" xmlns="http://www.w3.org/2000/svg">
  <path d="M3.55627 0.993808C3.48979 0.92076 3.40957 0.861522 3.3202 0.819476C3.23082 0.77743 3.13404 0.7534 3.03538 0.748757C2.83612 0.73938 2.6413 0.809542 2.49377 0.943808C2.34625 1.07807 2.2581 1.26545 2.24872 1.4647C2.23935 1.66396 2.30951 1.85878 2.44377 2.00631L3.45002 3.10631C1.29378 4.53756 0.356276 6.60006 0.312526 6.69381C0.272294 6.7909 0.251587 6.89496 0.251587 7.00006C0.251587 7.10515 0.272294 7.20922 0.312526 7.30631C0.767033 8.22311 1.36876 9.05919 2.09378 9.78131C3.71252 11.3938 5.75002 12.2501 8.00002 12.2501C9.09342 12.2548 10.1769 12.0424 11.1875 11.6251L12.4438 13.0063C12.5786 13.1529 12.7658 13.2403 12.9647 13.2497C13.1637 13.259 13.3583 13.1896 13.5063 13.0563C13.6528 12.9215 13.7403 12.7343 13.7496 12.5353C13.759 12.3364 13.6895 12.1418 13.5563 11.9938L3.55627 0.993808ZM8.00002 10.7501C6.15002 10.7501 4.53127 10.0813 3.19377 8.75631C2.66653 8.23455 2.2124 7.64376 1.84378 7.00006C2.17502 6.41881 3.01877 5.13131 4.46877 4.23131L10.1 10.4251C9.42184 10.6447 8.71288 10.7545 8.00002 10.7501ZM15.6875 7.30631C15.6625 7.35631 15.125 8.55006 13.9313 9.75006C13.8626 9.82163 13.7801 9.87849 13.6888 9.91717C13.5974 9.95585 13.4992 9.97554 13.4 9.97506C13.2527 9.97253 13.1094 9.92704 12.9876 9.84417C12.8658 9.7613 12.7708 9.64466 12.7144 9.50858C12.658 9.37249 12.6425 9.22289 12.67 9.07815C12.6974 8.9334 12.7665 8.79982 12.8688 8.69381C13.3711 8.18882 13.8041 7.61924 14.1563 7.00006C13.7876 6.35636 13.3335 5.76557 12.8063 5.24381C11.4688 3.91881 9.85002 3.25006 8.00002 3.25006C7.79377 3.25006 7.58127 3.25631 7.37502 3.27506C7.27712 3.28448 7.17833 3.27422 7.08445 3.24489C6.99057 3.21557 6.90351 3.16776 6.82838 3.10428C6.75326 3.0408 6.69159 2.96294 6.64701 2.87527C6.60242 2.78761 6.57582 2.69191 6.56877 2.59381C6.55143 2.39574 6.61346 2.19889 6.7412 2.04653C6.86895 1.89417 7.05196 1.79878 7.25002 1.78131C7.49377 1.76256 7.75002 1.75006 8.00002 1.75006C10.25 1.75006 12.2875 2.60631 13.9063 4.21881C14.6313 4.94092 15.233 5.77701 15.6875 6.69381C15.7277 6.7909 15.7485 6.89496 15.7485 7.00006C15.7485 7.10515 15.7277 7.20922 15.6875 7.30631Z" fill="black"/>
</svg>
