<svg width="16" height="12" viewBox="0 0 16 12" fill="none" xmlns="http://www.w3.org/2000/svg">
  <path d="M15.6875 5.69375C15.233 4.77695 14.6313 3.94087 13.9063 3.21875C12.2875 1.60625 10.25 0.75 8.00002 0.75C5.75002 0.75 3.71252 1.60625 2.09378 3.21875C1.36876 3.94087 0.767033 4.77695 0.312526 5.69375C0.272294 5.79084 0.251587 5.89491 0.251587 6C0.251587 6.10509 0.272294 6.20916 0.312526 6.30625C0.767033 7.22305 1.36876 8.05913 2.09378 8.78125C3.71252 10.3938 5.75002 11.25 8.00002 11.25C10.25 11.25 12.2875 10.3938 13.9063 8.78125C14.6313 8.05913 15.233 7.22305 15.6875 6.30625C15.7277 6.20916 15.7485 6.10509 15.7485 6C15.7485 5.89491 15.7277 5.79084 15.6875 5.69375ZM12.8063 7.75625C11.4688 9.08125 9.85002 9.75 8.00002 9.75C6.15002 9.75 4.53127 9.08125 3.19377 7.75625C2.66653 7.23449 2.2124 6.6437 1.84378 6C2.21076 5.35521 2.66505 4.76421 3.19377 4.24375C4.53127 2.91875 6.15002 2.25 8.00002 2.25C9.85002 2.25 11.4688 2.91875 12.8063 4.24375C13.3335 4.76551 13.7876 5.3563 14.1563 6C13.7876 6.6437 13.3335 7.23449 12.8063 7.75625ZM8.00002 3.25C7.45612 3.25 6.92444 3.41128 6.4722 3.71346C6.01997 4.01563 5.6675 4.44512 5.45935 4.94762C5.25121 5.45012 5.19675 6.00305 5.30286 6.5365C5.40897 7.06995 5.67088 7.55995 6.05548 7.94454C6.44007 8.32914 6.93008 8.59105 7.46352 8.69716C7.99697 8.80327 8.5499 8.74881 9.0524 8.54067C9.5549 8.33253 9.98439 7.98005 10.2866 7.52782C10.5887 7.07558 10.75 6.5439 10.75 6C10.75 5.27065 10.4603 4.57118 9.94456 4.05546C9.42884 3.53973 8.72937 3.25 8.00002 3.25ZM8.00002 7.25C7.7528 7.25 7.51112 7.17669 7.30556 7.03934C7.1 6.90199 6.93978 6.70676 6.84517 6.47835C6.75056 6.24995 6.72581 5.99861 6.77404 5.75614C6.82227 5.51366 6.94132 5.29093 7.11614 5.11612C7.29095 4.9413 7.51368 4.82225 7.75616 4.77402C7.99863 4.72579 8.24997 4.75054 8.47838 4.84515C8.70678 4.93976 8.90201 5.09998 9.03936 5.30554C9.17671 5.5111 9.25002 5.75277 9.25002 6C9.24838 6.33101 9.11615 6.648 8.88209 6.88207C8.64802 7.11613 8.33104 7.24836 8.00002 7.25Z" fill="black"/>
</svg>
