<svg width="20" height="20" viewBox="0 0 20 20" fill="none" xmlns="http://www.w3.org/2000/svg">
<path d="M3.5 6V19M3.5 6C4.8807 6 6 4.8807 6 3.5C6 2.11929 4.8807 1 3.5 1C2.11929 1 1 2.11929 1 3.5C1 4.8807 2.11929 6 3.5 6ZM10 12.5V19M10 12.5C11.3807 12.5 12.5 11.3807 12.5 10C12.5 8.6193 11.3807 7.5 10 7.5M10 12.5C8.6193 12.5 7.5 11.3807 7.5 10C7.5 8.6193 8.6193 7.5 10 7.5M10 7.5V1M16.5 1V14M16.5 14C17.8807 14 19 15.1193 19 16.5C19 17.8807 17.8807 19 16.5 19C15.1193 19 14 17.8807 14 16.5C14 15.1193 15.1193 14 16.5 14Z" stroke="white" stroke-width="2" stroke-linecap="round" stroke-linejoin="round"/>
</svg>
