<svg width="25" height="25" viewBox="0 0 25 25" fill="none" xmlns="http://www.w3.org/2000/svg">
<path d="M20.875 22.9167C20.875 23.469 21.3227 23.9167 21.875 23.9167C22.4273 23.9167 22.875 23.469 22.875 22.9167H20.875ZM2.125 22.9167C2.125 23.469 2.57272 23.9167 3.125 23.9167C3.67728 23.9167 4.125 23.469 4.125 22.9167H2.125ZM9.89583 19.3125C9.34355 19.3125 8.89583 19.7602 8.89583 20.3125C8.89583 20.8648 9.34355 21.3125 9.89583 21.3125V19.3125ZM15.1042 21.3125C15.6565 21.3125 16.1042 20.8648 16.1042 20.3125C16.1042 19.7602 15.6565 19.3125 15.1042 19.3125V21.3125ZM13.5 17.7083C13.5 17.1561 13.0523 16.7083 12.5 16.7083C11.9477 16.7083 11.5 17.1561 11.5 17.7083H13.5ZM11.5 22.9167C11.5 23.469 11.9477 23.9167 12.5 23.9167C13.0523 23.9167 13.5 23.469 13.5 22.9167H11.5ZM15.6667 6.25C15.6667 7.9989 14.2489 9.41667 12.5 9.41667V11.4167C15.3535 11.4167 17.6667 9.10347 17.6667 6.25H15.6667ZM12.5 9.41667C10.7511 9.41667 9.33333 7.9989 9.33333 6.25H7.33333C7.33333 9.10347 9.64653 11.4167 12.5 11.4167V9.41667ZM9.33333 6.25C9.33333 4.5011 10.7511 3.08334 12.5 3.08334V1.08334C9.64653 1.08334 7.33333 3.39653 7.33333 6.25H9.33333ZM12.5 3.08334C14.2489 3.08334 15.6667 4.5011 15.6667 6.25H17.6667C17.6667 3.39653 15.3535 1.08334 12.5 1.08334V3.08334ZM22.875 22.9167C22.875 17.1867 18.2299 12.5417 12.5 12.5417V14.5417C17.1254 14.5417 20.875 18.2913 20.875 22.9167H22.875ZM12.5 12.5417C6.77006 12.5417 2.125 17.1867 2.125 22.9167H4.125C4.125 18.2913 7.87463 14.5417 12.5 14.5417V12.5417ZM9.89583 21.3125H15.1042V19.3125H9.89583V21.3125ZM11.5 17.7083V22.9167H13.5V17.7083H11.5Z" fill="#00A0C8"/>
</svg>
