<svg width="25" height="25" viewBox="0 0 25 25" fill="none" xmlns="http://www.w3.org/2000/svg">
<path d="M4.68749 9.375L4.0628 8.59413L4.0628 8.59413L4.68749 9.375ZM4.68749 21.875H3.68749V22.875H4.68749V21.875ZM20.3125 21.875V22.875H21.3125V21.875H20.3125ZM20.3125 9.375L20.9372 8.59413V8.59413L20.3125 9.375ZM12.5 3.125L13.1247 2.34413L12.5 1.84438L11.8753 2.34413L12.5 3.125ZM1.45863 10.6775C1.02737 11.0225 0.95745 11.6518 1.30246 12.083C1.64747 12.5143 2.27676 12.5842 2.70802 12.2392L1.45863 10.6775ZM22.292 12.2392C22.7232 12.5842 23.3525 12.5143 23.6975 12.083C24.0425 11.6518 23.9726 11.0225 23.5414 10.6775L22.292 12.2392ZM9.89583 15.1042V14.1042C9.34354 14.1042 8.89583 14.5519 8.89583 15.1042H9.89583ZM9.89583 21.875H8.89583C8.89583 22.4273 9.34354 22.875 9.89583 22.875V21.875ZM15.1042 21.875V22.875C15.6564 22.875 16.1042 22.4273 16.1042 21.875H15.1042ZM15.1042 15.1042H16.1042C16.1042 14.5519 15.6564 14.1042 15.1042 14.1042V15.1042ZM3.68749 9.375V21.875H5.68749V9.375H3.68749ZM4.68749 22.875H20.3125V20.875H4.68749V22.875ZM21.3125 21.875V9.375H19.3125V21.875H21.3125ZM20.9372 8.59413L13.1247 2.34413L11.8753 3.90587L19.6878 10.1559L20.9372 8.59413ZM11.8753 2.34413L4.0628 8.59413L5.31219 10.1559L13.1247 3.90587L11.8753 2.34413ZM4.0628 8.59413L1.45863 10.6775L2.70802 12.2392L5.31219 10.1559L4.0628 8.59413ZM2.70802 12.2392L13.1247 3.90587L11.8753 2.34413L1.45863 10.6775L2.70802 12.2392ZM11.8753 3.90587L22.292 12.2392L23.5414 10.6775L13.1247 2.34413L11.8753 3.90587ZM23.5414 10.6775L20.9372 8.59413L19.6878 10.1559L22.292 12.2392L23.5414 10.6775ZM8.89583 15.1042V21.875H10.8958V15.1042H8.89583ZM9.89583 22.875H15.1042V20.875H9.89583V22.875ZM16.1042 21.875V15.1042H14.1042V21.875H16.1042ZM15.1042 14.1042H9.89583V16.1042H15.1042V14.1042Z" fill="#00A0C8"/>
</svg>
