<svg width="14" height="14" viewBox="0 0 14 14" fill="none" xmlns="http://www.w3.org/2000/svg">
<path d="M7.9767 4.83577C8.17196 5.03103 8.48854 5.03103 8.6838 4.83577C8.87907 4.64051 8.87907 4.32393 8.6838 4.12867L7.9767 4.83577ZM4.44118 4.12865C4.24591 4.32391 4.2459 4.64049 4.44115 4.83576C4.63641 5.03103 4.95299 5.03104 5.14826 4.83578L4.44118 4.12865ZM10.7354 10.0283C10.5401 9.833 10.2235 9.833 10.0283 10.0283C9.833 10.2235 9.833 10.5401 10.0283 10.7354L10.7354 10.0283ZM12.6799 13.387C12.8752 13.5823 13.1918 13.5823 13.387 13.387C13.5823 13.1918 13.5823 12.8752 13.387 12.6799L12.6799 13.387ZM6.5625 12.375C9.77264 12.375 12.375 9.77264 12.375 6.5625H11.375C11.375 9.22036 9.22036 11.375 6.5625 11.375V12.375ZM12.375 6.5625C12.375 3.35236 9.77264 0.75 6.5625 0.75V1.75C9.22036 1.75 11.375 3.90464 11.375 6.5625H12.375ZM6.5625 0.75C3.35236 0.75 0.75 3.35236 0.75 6.5625H1.75C1.75 3.90464 3.90464 1.75 6.5625 1.75V0.75ZM0.75 6.5625C0.75 9.77264 3.35236 12.375 6.5625 12.375V11.375C3.90464 11.375 1.75 9.22036 1.75 6.5625H0.75ZM8.6838 4.12867C8.14146 3.58632 7.39077 3.25 6.5625 3.25V4.25C7.11491 4.25 7.61423 4.4733 7.9767 4.83577L8.6838 4.12867ZM6.5625 3.25C5.73422 3.25 4.98355 3.58632 4.44118 4.12865L5.14826 4.83578C5.51077 4.4733 6.01009 4.25 6.5625 4.25V3.25ZM10.0283 10.7354L12.6799 13.387L13.387 12.6799L10.7354 10.0283L10.0283 10.7354Z" fill="#87AFBC"/>
</svg>
