<svg width="16" height="16" viewBox="0 0 16 8" fill="none" xmlns="http://www.w3.org/2000/svg">
<path d="M1.48682 2.28015L7.41164 1.0208C7.5846 0.984036 7.76507 1.01748 7.91334 1.11378L10.613 2.86695C10.7613 2.96325 10.9417 2.99668 11.1147 2.95995L12.4748 2.67081C12.835 2.59428 13.189 2.82418 13.2655 3.18431L13.4734 4.16248C13.55 4.52261 13.3201 4.87661 12.9599 4.95318L10.6217 5.45018C10.4487 5.48695 10.2682 5.45351 10.12 5.35721L7.42034 3.60405C7.27204 3.50775 7.09157 3.47428 6.91864 3.51105L5.8845 3.73085M14.5129 9.05311L8.58804 10.3125C8.41507 10.3492 8.2346 10.3158 8.08634 10.2195L5.3867 8.46631C5.2384 8.37001 5.05794 8.33658 4.885 8.37335L3.52484 8.66245C3.16471 8.73898 2.8107 8.50908 2.73414 8.14894L2.52623 7.17081C2.44968 6.81065 2.67958 6.45665 3.03972 6.38008L5.378 5.88308C5.55097 5.84631 5.73144 5.87975 5.8797 5.97605L8.57934 7.72921C8.72764 7.82551 8.9081 7.85898 9.08104 7.82221L10.1152 7.60241" stroke="#4D8F9E" stroke-width="1.5" stroke-linecap="round"/>
</svg>
