<svg width="24" height="24" viewBox="0 0 24 24" fill="none" xmlns="http://www.w3.org/2000/svg">
<path d="M13.46 12L18.6976 17.2376C18.8912 17.4312 19 17.6938 19 17.9676C19 18.5378 18.5378 19 17.9676 19C17.6938 19 17.4312 18.8912 17.2376 18.6976L12 13.46L6.76238 18.6976C6.56877 18.8912 6.30618 19 6.03238 19C5.46221 19 5 18.5378 5 17.9676C5 17.6938 5.10877 17.4312 5.30238 17.2376L10.54 12L5.30238 6.76238C5.10877 6.56877 5 6.30618 5 6.03238C5 5.46221 5.46221 5 6.03238 5C6.30618 5 6.56877 5.10877 6.76238 5.30238L12 10.54L17.2376 5.30238C17.4312 5.10877 17.6938 5 17.9676 5C18.5378 5 19 5.46221 19 6.03238C19 6.30618 18.8912 6.56877 18.6976 6.76238L13.46 12Z" fill="white"/>
</svg>
