<svg width="23" height="18" viewBox="0 0 23 18" fill="none" xmlns="http://www.w3.org/2000/svg">
<path d="M1.32324 3.68777L10.5808 1.72003C10.851 1.66259 11.133 1.71485 11.3647 1.86532L15.5829 4.60464C15.8146 4.75511 16.0966 4.80735 16.3668 4.74995L18.492 4.29818C19.0547 4.1786 19.6079 4.53782 19.7275 5.10053L20.0523 6.62891C20.172 7.19162 19.8128 7.74474 19.25 7.86438L15.5965 8.64094C15.3262 8.69839 15.0442 8.64615 14.8125 8.49568L10.5944 5.75636C10.3626 5.60589 10.0807 5.5536 9.81046 5.61105L8.19463 5.95448M21.6764 14.2705L12.4189 16.2383C12.1486 16.2957 11.8667 16.2434 11.635 16.093L7.41682 13.3537C7.1851 13.2032 6.90312 13.1509 6.63291 13.2084L4.50765 13.6601C3.94494 13.7797 3.3918 13.4205 3.27219 12.8578L2.94733 11.3294C2.82772 10.7667 3.18693 10.2135 3.74966 10.0939L7.40322 9.31735C7.67348 9.2599 7.95546 9.31214 8.18713 9.46261L12.4053 12.2019C12.637 12.3524 12.919 12.4047 13.1892 12.3472L14.805 12.0038" stroke="#4D8F9E" stroke-width="1.5" stroke-linecap="round"/>
</svg>

